<svg width="512" height="512" viewBox="0 0 512 512" fill="none" xmlns="http://www.w3.org/2000/svg"><defs><linearGradient id="bg" x1="82" y1="56" x2="428" y2="461" gradientUnits="userSpaceOnUse"><stop stop-color="#FF9A3D"/><stop offset="0.42" stop-color="#FF6B2C"/><stop offset="1" stop-color="#13294B"/></linearGradient><linearGradient id="coin" x1="154" y1="132" x2="372" y2="378" gradientUnits="userSpaceOnUse"><stop stop-color="#FFFFFF"/><stop offset="1" stop-color="#F7F8FA"/></linearGradient><filter id="shadow" x="36" y="42" width="448" height="448" filterUnits="userSpaceOnUse" color-interpolation-filters="sRGB"><feDropShadow dx="0" dy="22" stdDeviation="22" flood-color="#050816" flood-opacity="0.32"/></filter><filter id="inner" x="112" y="118" width="288" height="260" filterUnits="userSpaceOnUse" color-interpolation-filters="sRGB"><feDropShadow dx="0" dy="8" stdDeviation="10" flood-color="#13294B" flood-opacity="0.18"/></filter></defs><rect x="58" y="58" width="396" height="396" rx="112" fill="url(#bg)" filter="url(#shadow)"/><path d="M389 145c28 31 44 72 44 117 0 96-78 174-174 174-51 0-97-22-129-57" stroke="white" stroke-opacity="0.22" stroke-width="26" stroke-linecap="round"/><path d="M124 316c-16-23-25-50-25-80 0-83 68-151 151-151 34 0 66 11 91 31" stroke="white" stroke-opacity="0.18" stroke-width="20" stroke-linecap="round"/><g filter="url(#inner)"><path d="M154 335V173c0-18 14-32 32-32h92c57 0 96 34 96 84 0 34-18 61-49 75l54 35h-72l-45-30h-52v30h-56Zm56-77h66c25 0 42-13 42-33s-17-32-42-32h-66v65Z" fill="url(#coin)"/><path d="M206 368c-17 0-31-14-31-31v-2h58v3c0 16-12 30-27 30Z" fill="#18A957"/><path d="M286 368c-17 0-31-14-31-31v-2h58v3c0 16-12 30-27 30Z" fill="#18A957"/></g><path d="M174 362h160" stroke="#13294B" stroke-opacity="0.20" stroke-width="18" stroke-linecap="round"/><path d="M112 382c58 36 145 42 226 5" stroke="white" stroke-opacity="0.26" stroke-width="14" stroke-linecap="round"/></svg>
