<svg width="980" height="260" viewBox="0 0 980 260" fill="none" xmlns="http://www.w3.org/2000/svg"><defs><linearGradient id="mark" x1="25" y1="20" x2="220" y2="238" gradientUnits="userSpaceOnUse"><stop stop-color="#FF9A3D"/><stop offset="0.45" stop-color="#FF6B2C"/><stop offset="1" stop-color="#13294B"/></linearGradient><linearGradient id="word" x1="270" y1="72" x2="896" y2="166" gradientUnits="userSpaceOnUse"><stop stop-color="#FFFFFF"/><stop offset="1" stop-color="#E5E7EB"/></linearGradient></defs><rect x="24" y="24" width="212" height="212" rx="62" fill="url(#mark)"/><path d="M77 171V85c0-11 8-19 19-19h49c35 0 59 20 59 50 0 20-10 36-28 45l30 20h-43l-25-17h-29v17H77Zm32-43h38c14 0 24-7 24-19 0-11-10-18-24-18h-38v37Z" fill="#FFFFFF"/><path d="M106 203c-9 0-17-8-17-17h35c0 9-8 17-18 17Zm48 0c-9 0-17-8-17-17h35c0 9-8 17-18 17Z" fill="#18A957"/><text x="275" y="144" fill="url(#word)" font-family="Inter, Arial, sans-serif" font-size="76" font-weight="900" letter-spacing="5">RODAPAY</text><text x="279" y="190" fill="#AAB2C0" font-family="Inter, Arial, sans-serif" font-size="26" font-weight="700" letter-spacing="1.4">controle, meta e lucro na sua rota</text></svg>
